<svg width="80" height="72" viewBox="0 0 80 72" fill="none" xmlns="http://www.w3.org/2000/svg">
<path d="M43.5235 35.5207C43.5621 35.6884 43.643 35.8435 43.7585 35.9711C43.874 36.0987 44.0203 36.1946 44.1834 36.2497C44.3465 36.3048 44.5209 36.3171 44.6902 36.2856C44.8594 36.2541 45.0177 36.1798 45.1501 36.0698L53.4506 29.1797L52.9899 32.5439C52.9715 32.675 52.9791 32.8085 53.0123 32.9367C53.0455 33.0649 53.1036 33.1852 53.1833 33.291C53.263 33.3967 53.3628 33.4857 53.4769 33.5529C53.591 33.6201 53.7172 33.6641 53.8483 33.6825C53.9795 33.7009 54.1129 33.6933 54.2411 33.6601C54.3693 33.6269 54.4897 33.5688 54.5954 33.4891C54.7012 33.4094 54.7902 33.3096 54.8573 33.1955C54.9245 33.0814 54.9686 32.9552 54.987 32.8241L55.7993 26.893C55.8277 26.6916 55.7944 26.4864 55.7038 26.3043C55.6131 26.1223 55.4695 25.972 55.2917 25.8732C55.1139 25.7745 54.9104 25.7319 54.708 25.7511C54.5055 25.7704 54.3137 25.8505 54.1577 25.9809L45.1219 33.4804L43.546 26.6184C43.4974 26.4178 43.3883 26.237 43.2335 26.1003C43.0788 25.9637 42.8858 25.8779 42.6807 25.8545C42.4756 25.8312 42.2682 25.8713 42.0867 25.9696C41.9051 26.0679 41.7581 26.2195 41.6656 26.4041L38.3879 33.1532L27.8101 20.3658C27.6711 20.1976 27.4812 20.0791 27.2691 20.028C27.0569 19.9769 26.834 19.9961 26.6336 20.0826C26.4333 20.1691 26.2665 20.3182 26.1582 20.5076C26.0498 20.6971 26.0059 20.9165 26.033 21.133L27.7424 34.8926L26.8341 34.9923C26.5772 35.0196 26.3406 35.1444 26.1732 35.3411C26.0057 35.5378 25.9201 35.7912 25.9341 36.0492C25.9481 36.3071 26.0606 36.5499 26.2484 36.7273C26.4361 36.9047 26.6849 37.0032 26.9432 37.0025C26.9801 37.0044 27.0172 37.0044 27.0541 37.0025L28.9797 36.79C29.1127 36.7754 29.2413 36.7344 29.3582 36.6695C29.4752 36.6047 29.578 36.5172 29.6608 36.4122C29.7436 36.3072 29.8046 36.1867 29.8404 36.0579C29.8762 35.9291 29.886 35.7944 29.8692 35.6617L28.4588 24.3261L37.8256 35.6448C37.9332 35.7747 38.0717 35.8755 38.2284 35.938C38.3851 36.0005 38.555 36.0227 38.7225 36.0025C38.89 35.9822 39.0497 35.9203 39.1871 35.8223C39.3244 35.7244 39.435 35.5935 39.5086 35.4417L42.2203 29.8548L43.5235 35.5207Z" fill="#D0D8E1"/>
<path d="M74.3908 38.5223L72.0189 38.3813L68.0084 35.4605C66.9195 34.6665 65.5137 34.4602 64.2392 34.8419L52.974 38.2149C51.8639 38.5472 50.9714 39.3073 50.4242 40.3223L46.7373 47.1606L43.8797 48.2402C41.7376 49.016 40.5936 51.3298 41.2872 53.4965L42.0627 56.0867C42.469 57.4434 43.9114 58.2211 45.2682 57.8149L47.3239 57.1994C48.3466 58.8196 50.344 59.6551 52.2763 59.0765C54.2087 58.4979 55.4182 56.7022 55.3822 54.7866L67.8809 51.0442C68.9036 52.6644 70.901 53.5 72.8333 52.9214C74.7657 52.3428 75.9752 50.5471 75.9392 48.6314L77.5838 48.139L77.6249 48.1267C78.9817 47.7205 79.7594 46.278 79.312 44.9336L78.3026 41.5622C77.7321 39.8066 76.1666 38.6178 74.3908 38.5223ZM51.7428 57.4443C50.3449 57.8628 48.9025 57.0851 48.4839 55.6872C48.0654 54.2894 48.8431 52.8469 50.2409 52.4284C51.6388 52.0098 53.0813 52.7875 53.4998 54.1854C53.9472 55.5298 53.1407 57.0257 51.7428 57.4443ZM72.2998 51.2891C70.9019 51.7077 69.4595 50.93 69.0409 49.5321C68.6224 48.1342 69.4001 46.6918 70.7979 46.2732C72.1958 45.8547 73.6383 46.6324 74.0568 48.0303C74.4631 49.387 73.6977 50.8706 72.2998 51.2891ZM77.5852 45.4506C77.7206 45.9029 77.4614 46.3837 77.0092 46.5191L75.4879 46.9746C74.5846 45.005 72.39 43.9597 70.2932 44.5876C68.1964 45.2154 66.8963 47.3071 67.2651 49.4366L54.972 53.1174C54.0687 51.1479 51.8741 50.1026 49.7773 50.7304C47.6805 51.3582 46.3804 53.4499 46.7492 55.5794L44.7758 56.1703C44.3235 56.3057 43.8427 56.0465 43.7073 55.5943L42.9317 53.0041C42.5378 51.6884 43.2045 50.324 44.4955 49.8479L47.6408 48.6821C47.8464 48.6205 47.9862 48.4891 48.1015 48.2754L51.9489 41.0754C52.2657 40.4877 52.8373 40.003 53.4952 39.806L64.7193 36.4453C65.5005 36.2114 66.3102 36.3722 66.9882 36.8411L71.1836 39.9306C71.3028 40.0293 71.4508 40.0746 71.6398 40.1076L74.283 40.257C75.3682 40.2904 76.3091 41.0391 76.6169 42.0669L77.6263 45.4383L77.5852 45.4506Z" fill="#D0D8E1"/>
<path d="M5.61021 38.5223L7.98203 38.3813L11.9926 35.4605C13.0815 34.6665 14.4872 34.4602 15.7618 34.8419L27.027 38.2149C28.1371 38.5472 29.0295 39.3073 29.5768 40.3223L33.2637 47.1606L36.1212 48.2402C38.2633 49.016 39.4074 51.3298 38.7138 53.4965L37.9383 56.0867C37.532 57.4434 36.0896 58.2211 34.7328 57.8149L32.6771 57.1994C31.6544 58.8196 29.657 59.6551 27.7247 59.0765C25.7923 58.4979 24.5828 56.7022 24.6188 54.7866L12.1201 51.0442C11.0974 52.6644 9.10001 53.5 7.16765 52.9214C5.23529 52.3428 4.02577 50.5471 4.06174 48.6314L2.41718 48.139L2.37607 48.1267C1.01931 47.7205 0.241606 46.278 0.688957 44.9336L1.6984 41.5622C2.26886 39.8066 3.83442 38.6178 5.61021 38.5223ZM28.2582 57.4443C29.6561 57.8628 31.0985 57.0851 31.5171 55.6872C31.9356 54.2894 31.1579 52.8469 29.76 52.4284C28.3622 52.0098 26.9197 52.7875 26.5012 54.1854C26.0538 55.5298 26.8603 57.0257 28.2582 57.4443ZM7.70117 51.2891C9.09905 51.7077 10.5415 50.93 10.9601 49.5321C11.3786 48.1342 10.6009 46.6918 9.20303 46.2732C7.80515 45.8547 6.3627 46.6324 5.94415 48.0303C5.53791 49.387 6.3033 50.8706 7.70117 51.2891ZM2.41575 45.4506C2.28034 45.9029 2.53957 46.3837 2.99183 46.5191L4.51304 46.9746C5.41635 45.005 7.61093 43.9597 9.70775 44.5876C11.8046 45.2154 13.1047 47.3071 12.7358 49.4366L25.0289 53.1174C25.9323 51.1479 28.1268 50.1026 30.2236 50.7304C32.3205 51.3582 33.6206 53.4499 33.2517 55.5794L35.2252 56.1703C35.6775 56.3057 36.1583 56.0465 36.2937 55.5943L37.0693 53.0041C37.4632 51.6884 36.7965 50.324 35.5055 49.8479L32.3601 48.6821C32.1546 48.6205 32.0147 48.4891 31.8995 48.2754L28.0521 41.0754C27.7353 40.4877 27.1636 40.003 26.5058 39.806L15.2817 36.4453C14.5005 36.2114 13.6908 36.3722 13.0128 36.8411L8.81734 39.9306C8.69818 40.0293 8.55022 40.0746 8.36114 40.1076L5.71801 40.257C4.63279 40.2904 3.69183 41.0391 3.38407 42.0669L2.37463 45.4383L2.41575 45.4506Z" fill="#D0D8E1"/>
<path d="M18.293 26.2893C18.1746 26.3485 18.069 26.4304 17.9823 26.5304C17.8956 26.6304 17.8294 26.7465 17.7877 26.8721C17.7459 26.9977 17.7294 27.1303 17.739 27.2623C17.7486 27.3944 17.7841 27.5232 17.8436 27.6414L18.4077 28.7697C18.467 28.8881 18.549 28.9937 18.6491 29.0804C18.7491 29.1671 18.8653 29.2333 18.9909 29.2751C19.1166 29.317 19.2492 29.3336 19.3813 29.3242C19.5134 29.3147 19.6423 29.2794 19.7607 29.2201C19.8791 29.1608 19.9847 29.0788 20.0714 28.9787C20.1582 28.8787 20.2243 28.7625 20.2661 28.6369C20.308 28.5112 20.3246 28.3786 20.3152 28.2465C20.3057 28.1144 20.2704 27.9855 20.2111 27.8671L19.647 26.7388C19.5876 26.6203 19.5056 26.5147 19.4054 26.4279C19.3052 26.3412 19.1889 26.2751 19.0632 26.2333C18.9374 26.1916 18.8047 26.1751 18.6725 26.1847C18.5404 26.1943 18.4114 26.2298 18.293 26.2893Z" fill="#D0D8E1"/>
<path d="M64.1266 27.8369L65.0668 26.7086C65.2381 26.5034 65.3209 26.2385 65.2969 25.9723C65.2729 25.706 65.1442 25.4602 64.9389 25.2889C64.7337 25.1175 64.4688 25.0348 64.2025 25.0588C63.9363 25.0827 63.6905 25.2115 63.5191 25.4167L62.5789 26.545C62.4076 26.7503 62.3248 27.0151 62.3488 27.2814C62.3728 27.5477 62.5015 27.7935 62.7068 27.9648C62.912 28.1361 63.1769 28.2189 63.4431 28.1949C63.7094 28.1709 63.9552 28.0422 64.1266 27.8369Z" fill="#D0D8E1"/>
</svg>
