<svg width="78" height="72" viewBox="0 0 78 72" fill="none" xmlns="http://www.w3.org/2000/svg">
<path d="M20.602 31.2604C20.8076 29.4095 19.3681 27.6272 17.38 27.2844C17.3115 27.0788 17.2429 26.9417 17.1744 26.736C16.3518 25.0222 14.5008 24.6109 14.021 24.5423C12.6499 24.3367 11.6217 24.8851 10.9361 25.2964C9.70219 25.1593 8.5368 25.5706 7.64563 26.4618C6.89155 27.2844 6.61734 28.1756 6.54879 28.8611C6.13748 29.341 5.72616 30.0265 5.58906 30.9177C5.52051 31.3976 5.3834 33.1799 6.61734 34.3453C7.23431 34.9623 8.12549 35.2365 9.01667 35.2365C9.70219 35.2365 10.3877 35.0994 11.0732 34.7566C12.787 35.6478 14.7065 34.7566 15.8033 34.0711C16.3518 34.2767 17.0373 34.4139 17.8599 34.2767C19.2995 33.934 20.4649 32.7 20.602 31.2604ZM17.3115 31.5347C16.9687 31.6032 16.626 31.329 16.626 31.329C16.1461 30.9177 15.392 30.9177 14.8436 31.329C14.1581 31.8774 12.8556 32.5629 12.3072 32.2887C12.2386 32.2887 12.1701 32.2202 12.1015 32.1516C11.6217 31.6032 10.799 31.5347 10.1821 32.0145C9.42798 32.6315 8.60536 32.6315 8.3997 32.3573C8.19404 32.1516 8.19404 31.6718 8.19404 31.3976C8.2626 30.9177 8.5368 30.5749 8.67391 30.5064C8.94812 30.2322 9.15377 29.8209 9.08522 29.4095C9.08522 29.341 9.08522 28.7926 9.42798 28.4498C9.63364 28.2442 9.9764 28.107 10.3192 28.107C10.4563 28.107 10.5934 28.107 10.7305 28.1756C11.2103 28.3127 11.6902 28.1756 12.1015 27.8328C12.1701 27.7643 12.7185 27.2159 13.5411 27.353C13.5411 27.353 14.3637 27.4901 14.638 27.9699C14.7065 28.107 14.7065 28.3127 14.7065 28.5184C14.6379 28.9297 14.7751 29.2724 15.0493 29.5466C15.3235 29.8209 15.6662 30.0265 16.0775 30.0265H16.7631C17.4486 30.1636 17.8599 30.712 17.7914 31.0548C17.8599 31.1919 17.6542 31.4661 17.3115 31.5347Z" fill="#D0D8E1"/>
<path d="M6.54835 20.772C6.68545 20.8406 6.82256 20.9777 6.95966 21.1148C7.16532 21.4575 7.50808 21.5946 7.91939 21.6632C8.33071 21.7317 8.67347 21.5946 8.94768 21.3204L9.49609 20.8406C9.7703 20.6349 10.1131 20.5664 10.4558 20.6349C10.6615 20.7035 10.8671 20.772 10.9357 20.9091C11.0728 21.1148 11.0728 21.4575 10.8671 21.8689C10.5244 22.5544 10.73 23.377 11.4156 23.7198C12.1011 24.0625 12.9237 23.8569 13.2665 23.1713C13.952 21.8689 13.952 20.3607 13.1979 19.3324C12.718 18.5783 11.8954 18.0985 10.9357 17.9614C9.97596 17.8243 8.94768 18.0299 8.12505 18.5098C7.98795 18.4412 7.78229 18.3041 7.64518 18.2356C5.86283 17.4815 4.28613 18.4412 3.80626 18.7155C2.70943 19.4695 2.22956 20.5664 2.0239 21.3204C0.995622 22.006 0.378652 23.1713 0.378652 24.4053C0.3101 25.4336 0.721413 26.2562 1.06417 26.7361C0.927069 27.9014 1.40693 28.9983 2.36667 29.4781C2.70943 29.6838 3.05219 29.7524 3.4635 29.7524C3.66916 29.7524 3.87481 29.7524 4.08047 29.6838C4.83454 29.5467 5.24586 28.7926 5.10875 28.0385C4.97165 27.4216 4.42323 27.0103 3.80626 26.9417C3.80626 26.8732 3.80626 26.8046 3.87481 26.7361C4.01192 26.2562 3.87481 25.7078 3.53205 25.2965C3.4635 25.2279 3.12074 24.8851 3.12074 24.4053C3.12074 23.994 3.4635 23.5827 3.87481 23.3084C4.28613 23.2399 4.56034 22.8286 4.56034 22.2802C4.56034 22.2116 4.62889 21.389 5.24586 20.9777C5.31441 20.9777 5.99993 20.4978 6.54835 20.772Z" fill="#D0D8E1"/>
<path d="M67.9172 38.0859L64.2467 36.7447L59.3056 30.2507C57.9644 28.486 55.8468 27.4978 53.6586 27.4978L34.3177 27.4978C32.4119 27.4978 30.6472 28.2743 29.3061 29.6154L20.2709 38.6506L15.2592 39.0035C11.5181 39.2153 8.62404 42.3211 8.69462 46.0622L8.69462 50.5092C8.69462 52.8386 10.6005 54.7444 12.9298 54.7444L16.4592 54.7444C17.3062 57.7797 20.0591 60.0385 23.3767 60.0385C26.6943 60.0385 29.4472 57.7797 30.2943 54.7444L51.7528 54.7444C52.5998 57.7797 55.3527 60.0385 58.6703 60.0385C61.9879 60.0385 64.7408 57.7797 65.5878 54.7444L68.4113 54.7444L68.4819 54.7444C70.8113 54.7444 72.7171 52.8386 72.6465 50.5092L72.6465 44.7211C72.5759 41.6858 70.6701 39.0741 67.9172 38.0859ZM23.3062 57.215C20.9062 57.215 19.0003 55.3091 19.0003 52.9092C19.0003 50.5092 20.9062 48.6033 23.3062 48.6033C25.7061 48.6033 27.612 50.5092 27.612 52.9092C27.6825 55.2385 25.7061 57.215 23.3062 57.215ZM58.5997 57.215C56.1997 57.215 54.2939 55.3091 54.2939 52.9092C54.2939 50.5092 56.1997 48.6033 58.5997 48.6033C60.9997 48.6033 62.9055 50.5092 62.9055 52.9092C62.9055 55.2385 60.9997 57.215 58.5997 57.215ZM69.6819 50.5092C69.6819 51.2857 69.0466 51.9209 68.2701 51.9209L65.6584 51.9209C65.1643 48.3916 62.1996 45.7093 58.5997 45.7093C54.9998 45.7093 51.9645 48.3916 51.541 51.9209L30.4354 51.9209C29.9413 48.3916 26.9767 45.7093 23.3767 45.7093C19.7768 45.7093 16.7416 48.3916 16.318 51.9209L12.9298 51.9209C12.1534 51.9209 11.5181 51.2857 11.5181 50.5092L11.5181 46.0622C11.5181 43.8034 13.2122 41.9682 15.471 41.827L20.9768 41.474C21.3297 41.474 21.6121 41.3329 21.8944 41.0505L31.3531 31.5213C32.1295 30.7448 33.2589 30.2507 34.3883 30.2507L53.6586 30.2507C54.9998 30.2507 56.1997 30.886 57.0468 31.9448L62.1996 38.7917C62.3408 39.0035 62.5526 39.1447 62.8349 39.2858L66.929 40.7682C68.6231 41.3329 69.7525 42.9564 69.7525 44.7211L69.7525 50.5092L69.6819 50.5092Z" fill="#D0D8E1"/>
</svg>
