<svg width="27" height="34" viewBox="0 0 27 34" fill="none" xmlns="http://www.w3.org/2000/svg">
<path d="M4.22083 14.738H0.126828L1.73683 10.46H5.18683C6.29083 7.30133 8.13083 4.81733 10.7068 3.008C13.3135 1.19867 16.4262 0.293999 20.0448 0.293999C22.5595 0.293999 24.5835 0.723332 26.1168 1.582L24.1388 6.458C23.0655 5.87533 21.6855 5.584 19.9988 5.584C18.2202 5.584 16.5948 6.01333 15.1228 6.872C13.6508 7.7 12.4702 8.896 11.5808 10.46H23.0808L21.4708 14.738H10.2468C10.1548 15.4127 10.1088 16.1333 10.1088 16.9C10.1088 17.544 10.1395 18.0807 10.2008 18.51H20.4128L18.9868 22.788H11.4888C12.3782 24.5053 13.6355 25.8393 15.2608 26.79C16.8862 27.7407 18.7108 28.216 20.7348 28.216C22.4522 28.216 23.7862 27.986 24.7368 27.526L25.6108 32.632C24.3228 33.2147 22.5442 33.506 20.2748 33.506C16.5948 33.506 13.3902 32.5553 10.6608 30.654C7.96216 28.7527 6.07616 26.1307 5.00283 22.788H0.172828L1.78283 18.51H4.17483C4.14416 18.2953 4.12883 17.7587 4.12883 16.9C4.12883 16.7467 4.1595 16.026 4.22083 14.738Z" fill="#D0D8E1"/>
</svg>
