<svg width="72" height="72" viewBox="0 0 72 72" fill="none" xmlns="http://www.w3.org/2000/svg">
<path d="M53.8137 17.0686H50.2236H45.3119H44.9045H44.8108C44.7448 17.0686 44.6457 17.0356 44.5796 17.0521C44.5851 17.0521 44.8053 17.0906 44.6842 17.0631C44.6346 17.0521 44.5851 17.0466 44.5355 17.0356C44.4529 17.0135 44.3703 16.9915 44.2877 16.964C44.2547 16.953 44.2162 16.9364 44.1831 16.9254C44.062 16.8869 44.2877 16.964 44.2767 16.9695C44.2162 17.0025 43.8858 16.7547 43.8307 16.7217C43.66 16.6171 43.9739 16.8539 43.8252 16.7217C43.7646 16.6666 43.6986 16.6116 43.638 16.551C43.5884 16.5015 43.5389 16.4464 43.4893 16.3913C43.4783 16.3803 43.4177 16.3197 43.4177 16.3087C43.4177 16.3253 43.5499 16.5015 43.4618 16.3583C43.3792 16.2206 43.3076 16.083 43.2305 15.9508C43.1754 15.8517 43.269 16.0389 43.269 16.0444C43.269 16.0169 43.2415 15.9673 43.2305 15.9398C43.1975 15.8462 43.1699 15.7526 43.1479 15.6535C43.1369 15.6094 43.0984 15.3671 43.1204 15.5433C43.1479 15.7195 43.1149 15.4222 43.1149 15.3837V15.29V15.1524V10.6813C43.1149 9.27716 43.1534 7.862 43.1149 6.45791V6.38633C42.4871 6.64513 41.8594 6.90392 41.2373 7.16272C42.5643 8.48978 43.8858 9.81131 45.2128 11.1383L51.5561 17.4816C52.0462 17.9717 52.5307 18.4562 53.0208 18.9463C53.4283 19.3538 54.1771 19.3868 54.5792 18.9463C54.9811 18.5058 55.0142 17.823 54.5792 17.3879C53.2521 16.0609 51.9306 14.7394 50.6036 13.4124L44.2603 7.06908C43.7702 6.57901 43.2857 6.09445 42.7956 5.60438C42.1238 4.9326 40.918 5.42817 40.918 6.38077V10.1031V14.9872C40.918 15.9068 41.0832 16.8264 41.6448 17.5808C42.4432 18.6545 43.6216 19.2602 44.9652 19.2657H49.3428C50.8019 19.2657 52.2667 19.2932 53.7258 19.2657H53.8029C54.3811 19.2657 54.9317 18.7591 54.9042 18.1643C54.8877 17.5752 54.4307 17.0686 53.814 17.0686L53.8137 17.0686Z" fill="#D0D8E1"/>
<path d="M52.7123 18.169V21.3682V28.9559V37.9147V45.2272V47.3141V47.8152V47.8978C52.7123 48.0024 52.7068 48.1071 52.7012 48.2117C52.7012 48.2392 52.6957 48.2612 52.6957 48.2888C52.6847 48.3879 52.6847 48.3879 52.6957 48.2943C52.7012 48.2723 52.7012 48.2447 52.7068 48.2227C52.7012 48.2723 52.6902 48.3218 52.6792 48.3714C52.6517 48.5145 52.6131 48.6577 52.5636 48.8009C52.5471 48.8449 52.5306 48.8945 52.514 48.9385C52.4314 49.1808 52.6297 48.7183 52.514 48.944C52.459 49.0542 52.4039 49.1588 52.3433 49.2634C52.3158 49.3074 52.1837 49.5662 52.1451 49.5662C52.1451 49.5662 52.3213 49.357 52.1837 49.5112C52.1286 49.5773 52.0735 49.6378 52.0185 49.6984C51.9469 49.7755 51.8698 49.8526 51.7872 49.9242C51.7597 49.9462 51.655 50.0618 51.622 50.0618C51.6606 50.0618 51.8037 49.9352 51.6716 50.0178C51.5725 50.0839 51.4733 50.1499 51.3687 50.2105C51.3081 50.249 51.2421 50.2821 51.176 50.3151L51.1099 50.3482C50.9998 50.3977 51.0218 50.3867 51.1705 50.3261C51.154 50.3702 50.8676 50.4308 50.8236 50.4473C50.7024 50.4803 50.5813 50.5023 50.4602 50.5299C50.2179 50.5849 50.6529 50.5133 50.4932 50.5299C50.4326 50.5354 50.3666 50.5409 50.306 50.5464C50.2289 50.5519 50.1518 50.5519 50.0747 50.5519H50.0031H48.6156H42.0244H33.1647H25.3237C24.1784 50.5519 23.0331 50.5629 21.8877 50.5519C21.8382 50.5519 21.7831 50.5519 21.7336 50.5464C21.6565 50.5409 21.5794 50.5354 21.5078 50.5299C21.3316 50.5189 21.5739 50.5409 21.5739 50.5409C21.5518 50.5739 20.814 50.3867 20.792 50.3261C20.814 50.3757 21.0012 50.4308 20.8195 50.3316C20.7644 50.3041 20.7094 50.2766 20.6598 50.249C20.5552 50.194 20.4506 50.1279 20.3515 50.0618C20.357 50.0673 20.2303 49.9847 20.2358 49.9792C20.2744 50.0068 20.3074 50.0343 20.346 50.0618C20.3074 50.0343 20.2689 50.0013 20.2358 49.9682C20.1367 49.8801 20.0431 49.792 19.9495 49.6929C19.911 49.6488 19.8669 49.6048 19.8284 49.5607C19.7953 49.5222 19.7237 49.3625 19.7788 49.5057C19.8394 49.6599 19.7623 49.4781 19.7403 49.4396C19.7072 49.39 19.6742 49.3405 19.6412 49.2854C19.5861 49.1918 19.531 49.0982 19.4815 48.9991C19.4705 48.9771 19.4594 48.955 19.4484 48.933C19.3989 48.8229 19.4099 48.8449 19.4705 48.9936C19.4539 48.9881 19.3989 48.8064 19.3934 48.7899C19.3548 48.6742 19.3218 48.5531 19.2943 48.4319C19.2887 48.4154 19.2392 48.2172 19.2502 48.2117C19.2557 48.2117 19.2777 48.5035 19.2612 48.2778C19.2502 48.1511 19.2447 48.019 19.2392 47.8923V47.1159V42.1713V34.2642V25.2613V17.0348V11.4569V10.2455V10.1409V10.1244C19.2392 10.0693 19.2392 10.0253 19.2447 9.97023C19.2447 9.92067 19.2502 9.8656 19.2557 9.81605C19.2612 9.7665 19.2667 9.71694 19.2722 9.66738C19.2502 9.82155 19.2447 9.8601 19.2612 9.772C19.3163 9.54073 19.3713 9.32048 19.4484 9.09472C19.531 8.85244 19.3328 9.31497 19.4484 9.08921L19.5145 8.95706C19.5806 8.83041 19.6577 8.70377 19.7348 8.58262C19.7568 8.54958 19.8394 8.36788 19.7733 8.51655C19.7127 8.65971 19.7898 8.50003 19.8229 8.46148C19.9 8.36787 19.9825 8.28528 20.0706 8.20268C20.1257 8.15313 20.2744 7.96591 20.3405 7.96591C20.3019 7.96591 20.1588 8.09255 20.2909 8.00996C20.3735 7.9604 20.4506 7.89983 20.5332 7.85579C20.6378 7.79522 20.7479 7.74016 20.8525 7.68509C21.0012 7.608 20.7975 7.6906 20.792 7.70712C20.803 7.68509 20.9351 7.65205 20.9627 7.64104C21.0783 7.60249 21.1995 7.56946 21.3151 7.53641C21.3757 7.5199 21.4362 7.51439 21.4968 7.49787C21.7336 7.44281 21.2765 7.50888 21.5023 7.49236C21.6455 7.48135 21.7886 7.47584 21.9373 7.47034H22.4934H25.1309H33.6108H40.8846H42.0465C41.7877 7.36021 41.5289 7.25559 41.2701 7.14546C42.5971 8.47252 43.9187 9.79405 45.2456 11.121L51.5889 17.4643C52.079 17.9544 52.5636 18.439 53.0536 18.929C53.4611 19.3365 54.2099 19.3695 54.612 18.929C55.014 18.4885 55.047 17.8058 54.612 17.3707L42.9604 5.71912C42.6961 5.45481 42.3988 5.27861 42.0023 5.2676C41.3195 5.25108 40.6313 5.2676 39.9485 5.2676H30.6318H22.5925H21.9372C20.9461 5.2731 19.9384 5.55943 19.1345 6.1376C17.7689 7.12324 17.0586 8.62096 17.0586 10.2949V14.9698V23.8571V34.1484V43.0357V47.7106C17.0586 49.4066 17.7964 50.9264 19.1951 51.9065C20.1532 52.5837 21.271 52.7379 22.4108 52.7379H28.9248H39.0127H47.6302H49.8052C49.9539 52.7379 50.1026 52.7434 50.2512 52.7324C51.6113 52.6773 52.9494 52.0606 53.8083 50.9924C54.5297 50.0949 54.9316 49.0321 54.9427 47.8758V47.4684V45.1392V36.5162V26.3568V19.1931V18.1524C54.9427 17.5742 54.4361 17.0236 53.8414 17.051C53.2136 17.0951 52.7125 17.5521 52.7125 18.1689L52.7123 18.169Z" fill="#D0D8E1"/>
<path d="M25.5437 29.2587H27.6141H32.5919H38.6102H43.8192C44.6672 29.2587 45.5152 29.2807 46.3577 29.2587H46.3962C46.9744 29.2587 47.525 28.7521 47.4975 28.1574C47.47 27.5627 47.013 27.0561 46.3962 27.0561H44.3259H39.3481H33.3297H28.1207C27.2727 27.0561 26.4247 27.034 25.5823 27.0561H25.5437C24.9655 27.0561 24.4149 27.5626 24.4424 28.1574C24.4699 28.7521 24.927 29.2587 25.5437 29.2587Z" fill="#D0D8E1"/>
<path d="M25.5437 36.313H27.6141H32.5919H38.6102H43.8192C44.6672 36.313 45.5152 36.335 46.3577 36.313H46.3962C46.9744 36.313 47.525 35.8064 47.4975 35.2117C47.47 34.617 47.013 34.1104 46.3962 34.1104H44.3259H39.3481H33.3297H28.1207C27.2727 34.1104 26.4247 34.0883 25.5823 34.1104H25.5437C24.9655 34.1104 24.4149 34.617 24.4424 35.2117C24.4699 35.8119 24.927 36.313 25.5437 36.313Z" fill="#D0D8E1"/>
<path d="M25.5437 43.3721H29.7946H36.606H38.1643C38.7425 43.3721 39.2931 42.8655 39.2656 42.2708C39.2381 41.676 38.7811 41.1694 38.1643 41.1694H33.9134H27.1021H25.5437C24.9655 41.1694 24.4149 41.676 24.4424 42.2708C24.4699 42.8655 24.927 43.3721 25.5437 43.3721Z" fill="#D0D8E1"/>
</svg>
