<svg width="72" height="72" viewBox="0 0 72 72" fill="none" xmlns="http://www.w3.org/2000/svg">
<path d="M58.7555 15.437C58.7485 15.0356 58.5729 14.6553 58.271 14.3906C57.9556 14.1275 57.5433 14.0112 57.1372 14.0709C57.0208 14.0709 45.3052 15.6987 37.0592 7.41367C36.4855 6.86211 35.5788 6.86211 35.0052 7.41367C26.759 15.6987 15.0435 14.0904 14.9272 14.0709C14.5227 14.0146 14.113 14.1267 13.7934 14.3806C13.475 14.6423 13.2816 15.0256 13.2604 15.437C12.737 25.9119 12.6306 40.6314 17.7758 47.7146C23.0764 54.9823 33.5802 60.3118 35.3155 60.8933C35.7832 61.0356 36.2824 61.0356 36.75 60.8933C38.4847 60.3508 48.9884 54.9823 54.2897 47.7146C59.3865 40.6508 59.2412 25.9112 58.7567 15.437L58.7555 15.437ZM51.885 46.0003C47.447 52.0951 38.1549 57.2509 35.9832 58.0648C33.8123 57.2896 24.52 52.1054 20.0813 46.0003C15.6429 39.8955 15.6334 26.9777 16.0405 17.0937C19.6549 17.2875 28.6377 17.0163 35.9823 10.4465C43.3078 17.0163 52.3105 17.2875 55.9241 17.0937C56.3311 26.9777 56.2632 39.9924 51.8832 46.0003H51.885ZM46.0709 29.362L39.9856 28.4804L37.2528 22.957V22.9566C37.0063 22.466 36.504 22.1563 35.9546 22.1563C35.4052 22.1563 34.9029 22.466 34.6559 22.9566L31.9231 28.48L25.8378 29.3616V29.362C25.2902 29.4416 24.8351 29.8253 24.6642 30.3522C24.4933 30.8787 24.6365 31.4567 25.0336 31.8425L29.4426 36.1352L28.4251 42.2015C28.3312 42.7474 28.5558 43.2994 29.0048 43.6248C29.4534 43.9501 30.0478 43.9916 30.5375 43.7325L35.9835 40.8739L41.4294 43.7325C41.638 43.8437 41.8711 43.9003 42.1078 43.8973C42.4136 43.8995 42.7121 43.8043 42.9604 43.6261C43.4047 43.2969 43.6288 42.7475 43.5418 42.2016L42.4954 36.1357L46.9043 31.8431V31.8426C47.3014 31.4568 47.4446 30.8788 47.2738 30.3523C47.1029 29.8254 46.6478 29.4417 46.1001 29.3621L46.0709 29.362ZM39.8887 34.5852V34.5848C39.5487 34.9213 39.3934 35.4019 39.4721 35.8739L40.1504 39.75L36.6619 37.9379C36.2363 37.7186 35.731 37.7186 35.3053 37.9379L31.7879 39.808L32.4662 35.932C32.5445 35.46 32.3892 34.9798 32.0496 34.6432L29.2004 31.8136L33.1344 31.2417C33.6081 31.1733 34.0178 30.8762 34.2298 30.4475L35.9835 26.8911L37.7373 30.4475C37.9492 30.8762 38.3589 31.1733 38.8326 31.2417L42.7666 31.8136L39.8887 34.5852Z" fill="#D0D8E1"/>
</svg>
