<svg width="72" height="72" viewBox="0 0 72 72" fill="none" xmlns="http://www.w3.org/2000/svg">
<path d="M18.4053 42.36C18.6261 42.636 18.9573 42.7464 19.2885 42.7464C19.6197 42.7464 19.951 42.636 20.1718 42.36C20.6686 41.8632 20.6686 41.0904 20.1718 40.5936L17.0805 37.4471C16.5837 36.9503 15.8108 36.9503 15.314 37.4471C14.8172 37.9439 14.8172 38.7167 15.314 39.2135L18.4053 42.36Z" fill="#D0D8E1"/>
<path d="M11.6712 44.9546L15.701 46.8866C15.8666 46.997 16.0874 46.997 16.253 46.997C16.6946 46.997 17.1914 46.721 17.4122 46.2794C17.6882 45.6722 17.4674 44.8994 16.805 44.6233L12.7753 42.6913C12.1681 42.4153 11.3952 42.6361 11.1192 43.2985C10.788 43.9057 11.064 44.6785 11.6712 44.9546Z" fill="#D0D8E1"/>
<path d="M14.8174 52.0754C15.4798 52.0754 15.9766 51.5786 16.087 50.9162C16.1422 50.1986 15.6454 49.5913 14.983 49.5361L10.5668 49.0945C9.84923 49.0393 9.24201 49.5361 9.18681 50.1986C9.13161 50.9162 9.62842 51.5234 10.2908 51.5786L14.707 52.0202C14.707 52.0754 14.7622 52.0754 14.8174 52.0754Z" fill="#D0D8E1"/>
<path d="M42.6937 54.5596V54.394C42.6937 51.3027 40.2096 48.8186 37.1184 48.8186H24.4772C21.3859 48.8186 18.9018 51.3027 18.9018 54.394V54.5596C16.0865 54.8356 13.8232 57.2093 13.8232 60.1349V61.4046C13.8232 62.1222 14.3753 62.6742 15.0929 62.6742H46.5026C47.2203 62.6742 47.7723 62.1222 47.7723 61.4046V60.1349C47.7723 57.2093 45.5642 54.8356 42.6937 54.5596ZM21.4411 54.394C21.4411 52.6827 22.8211 51.3027 24.5324 51.3027H37.1736C38.8848 51.3027 40.2648 52.6827 40.2648 54.394V54.5044H21.4963V54.394H21.4411ZM16.3625 60.1349C16.3625 58.4237 17.7426 57.0437 19.4538 57.0437H42.1969C43.9082 57.0437 45.2882 58.4237 45.2882 60.1349H16.3625Z" fill="#D0D8E1"/>
<path d="M59.9174 41.8633L48.2146 31.4301C49.5947 29.6637 50.6987 27.8972 51.4715 26.1308C51.8027 26.2412 52.1891 26.2964 52.5204 26.2964C53.5692 26.2964 54.5628 25.91 55.3356 25.1372C56.1085 24.3643 56.4949 23.3707 56.4949 22.3219C56.4949 21.273 56.0533 20.2242 55.3356 19.5066L47.773 11.8336C46.2274 10.2879 43.6881 10.2879 42.0872 11.8336C41.3144 12.6064 40.928 13.6 40.928 14.6488C40.928 15.0352 40.9832 15.3665 41.0936 15.6977C38.2783 17.0777 35.3526 19.1202 32.703 21.7699C29.9981 24.4747 27.9556 27.4004 26.686 30.1605C25.3611 29.7741 23.8155 30.1053 22.7667 31.1541C21.221 32.6998 21.221 35.2391 22.7667 36.8399L30.3845 44.4577C31.1573 45.2306 32.2061 45.617 33.1998 45.617C34.1934 45.617 35.2422 45.2306 36.0151 44.4577C36.7879 43.6849 37.1743 42.6913 37.1743 41.6425C37.1743 41.256 37.1191 40.9248 37.0087 40.5936C38.7199 39.8208 40.5416 38.7168 42.308 37.3367L52.7412 48.9843C53.6796 50.0331 54.9492 50.6403 56.3293 50.6403C56.3845 50.6403 56.4397 50.6403 56.4949 50.6403C57.8197 50.6403 59.0894 50.1435 60.0278 49.1499C61.0214 48.1563 61.5182 46.8314 61.5182 45.4514C61.5182 44.0713 60.911 42.7465 59.9174 41.8633ZM43.9089 13.6552C44.1849 13.3792 44.5713 13.2136 44.9577 13.2136C45.3441 13.2136 45.7306 13.3792 46.0066 13.6552L53.6244 21.2178C53.9004 21.4938 54.066 21.8803 54.066 22.2667C54.066 22.6531 53.9004 23.0395 53.6244 23.3155C53.0172 23.9227 52.0787 23.9227 51.5267 23.3155L43.9089 15.7529C43.6329 15.4769 43.4673 15.0905 43.4673 14.704C43.4673 14.3176 43.6329 13.9312 43.9089 13.6552ZM34.3038 42.6361C33.6966 43.2433 32.7582 43.2433 32.2061 42.6361L24.5883 35.0735C23.9811 34.4662 23.9811 33.5278 24.5883 32.9758C24.8643 32.6998 25.2507 32.5342 25.6371 32.5342C26.0236 32.5342 26.41 32.6998 26.686 32.9758L34.3038 40.5384C34.8558 41.1456 34.8558 42.0841 34.3038 42.6361ZM35.6838 38.3856L28.8388 31.5406C29.8877 29.0565 31.7645 26.2412 34.4694 23.5363C37.0087 20.997 39.7688 19.065 42.4737 17.9057L49.3739 24.8059C48.2146 27.4556 46.2274 30.2709 43.7433 32.8102C40.9832 35.4599 38.1679 37.3367 35.6838 38.3856ZM58.3165 47.3834C57.8197 47.8802 57.1573 48.1563 56.4397 48.1011C55.7221 48.1011 55.1148 47.7698 54.618 47.273L44.2401 35.6807C44.6265 35.2943 45.0129 34.9631 45.3993 34.5766C45.7858 34.1902 46.1722 33.8038 46.5034 33.4174L58.0957 43.7953C58.5925 44.2369 58.9238 44.8994 58.9238 45.617C59.0894 46.2242 58.8134 46.8866 58.3165 47.3834Z" fill="#D0D8E1"/>
</svg>
