<svg width="72" height="72" viewBox="0 0 72 72" fill="none" xmlns="http://www.w3.org/2000/svg">
<path d="M45.7759 30.8227C45.7759 30.509 45.5249 30.2581 45.2112 30.2581H32.4123C32.0986 30.2581 31.8477 30.509 31.8477 30.8227V32.0813C31.8477 32.395 32.0986 32.646 32.4123 32.646H45.2112C45.5249 32.646 45.7759 32.395 45.7759 32.0813V30.8227Z" fill="#D0D8E1"/>
<path d="M45.7759 36.379V35.1203C45.7759 34.8066 45.5249 34.5557 45.2112 34.5557H32.4123C32.0986 34.5557 31.8477 34.8066 31.8477 35.1203V36.379C31.8477 36.6927 32.0986 36.9436 32.4123 36.9436H45.2112C45.5249 36.9436 45.7759 36.6927 45.7759 36.379Z" fill="#D0D8E1"/>
<path d="M31.8477 40.4686V39.2099C31.8477 38.8335 32.0986 38.6453 32.4123 38.6453H37.733L35.3033 41.0332H32.4123C32.0986 41.0332 31.8477 40.7823 31.8477 40.4686Z" fill="#D0D8E1"/>
<path d="M22.9937 49.3864H9.8844C8.91379 49.3864 8.23546 48.8436 8.23546 47.7425V22.694C8.23546 21.9371 8.96233 21.0122 9.8844 21.0122H49.8023C50.7285 21.0122 51.5426 22.0459 51.5426 22.694V37.5082H53.4962V22.694C53.4962 20.7529 51.7434 19 49.8023 19H9.8844C7.94331 19 6.19043 20.7529 6.19043 22.694V47.7425C6.19043 49.6836 7.94331 51.4365 9.8844 51.4365H22.2313C22.2793 50.7325 22.5385 49.8851 22.9937 49.3864Z" fill="#D0D8E1"/>
<path d="M24.387 36.2888C25.8711 35.1273 26.7745 33.385 26.7745 31.3847C26.7745 27.9647 23.9998 25.1899 20.5798 25.1899C17.1598 25.1899 14.3851 27.9647 14.3851 31.3847C14.3851 33.385 15.353 35.1273 16.7726 36.2888C13.7398 37.3213 11.6104 40.1605 11.6104 43.4514V44.2594H14.0624V43.516C14.0624 40.6767 16.3854 38.3537 19.2247 38.3537H21.9994C24.8387 38.3537 27.1617 40.6767 27.1617 43.516V44.3239H29.6137V43.516C29.5492 40.1605 27.3553 37.3213 24.387 36.2888ZM20.5798 27.642C22.6447 27.642 24.387 29.3198 24.387 31.4492C24.387 33.5141 22.7092 35.2564 20.5798 35.2564C18.5149 35.2564 16.7726 33.5786 16.7726 31.4492C16.7726 29.3198 18.5149 27.642 20.5798 27.642Z" fill="#D0D8E1"/>
<path d="M68.4011 46.6052L65.6091 45.5851L61.8505 40.6453C60.8304 39.303 59.2196 38.5513 57.5551 38.5513L42.8432 38.5513C41.3934 38.5513 40.0511 39.1419 39.0309 40.1621L32.1582 47.0348L28.346 47.3033C25.5003 47.4643 23.2988 49.8268 23.3525 52.6726L23.3525 56.0553C23.3525 57.8271 24.8022 59.2768 26.5741 59.2768L29.2588 59.2768C29.9031 61.5856 31.9971 63.3038 34.5207 63.3038C37.0443 63.3038 39.1383 61.5856 39.7826 59.2768L56.1054 59.2768C56.7497 61.5856 58.8437 63.3038 61.3673 63.3038C63.8909 63.3038 65.9849 61.5856 66.6292 59.2768L68.777 59.2768L68.8307 59.2768C70.6025 59.2768 72.0523 57.8271 71.9986 56.0553L71.9986 51.6524C71.9449 49.3436 70.4952 47.357 68.4011 46.6052ZM34.467 61.1561C32.6414 61.1561 31.1917 59.7064 31.1917 57.8808C31.1917 56.0552 32.6414 54.6055 34.467 54.6055C36.2926 54.6055 37.7423 56.0552 37.7423 57.8808C37.796 59.6527 36.2926 61.1561 34.467 61.1561ZM61.3136 61.1561C59.488 61.1561 58.0383 59.7064 58.0383 57.8808C58.0383 56.0552 59.488 54.6055 61.3136 54.6055C63.1392 54.6055 64.5889 56.0552 64.5889 57.8808C64.5889 59.6527 63.1392 61.1561 61.3136 61.1561ZM69.7434 56.0553C69.7434 56.6459 69.2602 57.1291 68.6696 57.1291L66.6829 57.1291C66.3071 54.4445 64.052 52.4041 61.3136 52.4041C58.5753 52.4041 56.2665 54.4445 55.9443 57.1291L39.89 57.1291C39.5142 54.4445 37.2591 52.4041 34.5207 52.4041C31.7824 52.4041 29.4735 54.4445 29.1514 57.1291L26.5741 57.1291C25.9835 57.1291 25.5003 56.6459 25.5003 56.0553L25.5003 52.6726C25.5003 50.9544 26.7889 49.5584 28.5071 49.451L32.6951 49.1825C32.9636 49.1825 33.1784 49.0751 33.3932 48.8604L40.588 41.6118C41.1787 41.0212 42.0378 40.6453 42.8968 40.6453L57.5551 40.6453C58.5753 40.6453 59.488 41.1285 60.1324 41.9339L64.052 47.1422C64.1594 47.3033 64.3204 47.4106 64.5352 47.518L67.6494 48.6456C68.938 49.0751 69.7971 50.3101 69.7971 51.6524L69.7971 56.0553L69.7434 56.0553Z" fill="#D0D8E1"/>
</svg>
