<svg width="72" height="72" viewBox="0 0 72 72" fill="none" xmlns="http://www.w3.org/2000/svg">
<path d="M55.1611 33.0462C54.7871 28.8558 53.2748 16.7546 48.1307 13.7932C47.0057 13.1454 45.1678 12.6226 42.8045 13.8047C42.2034 14.1048 39.9164 15.3922 36.0114 17.6279C32.9899 15.9135 29.8298 14.1315 29.1765 13.8047C26.8118 12.6226 24.9744 13.1467 23.8499 13.7932C18.7058 16.7546 17.1939 28.8558 16.8199 33.0462H13.4229V35.7705H58.8273V33.0462H55.1611ZM25.2094 16.1539C25.7233 15.8586 26.5662 15.546 27.9585 16.2417C28.9371 16.7307 36.6878 21.1399 40.6491 23.4026L42.0006 21.0375C41.8442 20.9482 40.5138 20.1883 38.7636 19.1921C42.6583 16.969 43.7371 16.3842 44.0225 16.2417C45.4144 15.5464 46.2582 15.8586 46.7712 16.1539C49.9951 18.0092 51.8623 26.945 52.427 33.0462H19.5539C20.1183 26.945 21.9855 18.0092 25.2094 16.1539Z" fill="#D0D8E1"/>
<path d="M47.3471 39.0234C45.3934 39.0261 43.4948 39.6714 41.9441 40.8598C40.3934 42.0482 39.2766 43.7137 38.766 45.5995C37.9127 45.2011 36.9812 44.9984 36.0395 45.006C35.0978 45.0136 34.1697 45.2314 33.3229 45.6435C32.7519 43.5026 31.3999 41.6532 29.5333 40.4595C27.6666 39.2658 25.4206 38.8145 23.2377 39.1943C21.0548 39.5742 19.0933 40.7578 17.7395 42.5118C16.3858 44.2659 15.738 46.4633 15.9238 48.6712C16.1096 50.8791 17.1154 52.9374 18.7432 54.4406C20.371 55.9439 22.5027 56.783 24.7184 56.7928C26.9341 56.8025 29.0731 55.9822 30.7141 54.4934C32.3551 53.0046 33.379 50.9552 33.5842 48.7491C34.2347 48.1102 35.1046 47.7438 36.0161 47.725C36.9276 47.7061 37.8119 48.0362 38.4882 48.6476C38.6303 50.3696 39.271 52.0128 40.3319 53.3766C41.3928 54.7403 42.8281 55.7654 44.4622 56.3267C46.0963 56.8879 47.8585 56.961 49.5334 56.5369C51.2084 56.1128 52.7235 55.21 53.8937 53.9388C55.0638 52.6675 55.8383 51.0829 56.1225 49.3787C56.4066 47.6744 56.1881 45.9242 55.4937 44.3421C54.7993 42.76 53.659 41.4145 52.2123 40.4699C50.7655 39.5254 49.0749 39.0227 47.3471 39.0234H47.3471ZM24.7305 54.0685C23.5126 54.0662 22.3227 53.703 21.3112 53.0246C20.2996 52.3463 19.5119 51.3834 19.0474 50.2575C18.5829 49.1317 18.4626 47.8934 18.7016 46.6992C18.9406 45.5049 19.5282 44.4084 20.3902 43.548C21.2522 42.6876 22.3499 42.102 23.5446 41.8652C24.7392 41.6285 25.9773 41.7511 27.1023 42.2177C28.2273 42.6843 29.1887 43.4738 29.8651 44.4866C30.5416 45.4994 30.9026 46.69 30.9027 47.9079C30.8992 49.5427 30.2474 51.1095 29.0904 52.2644C27.9333 53.4193 26.3653 54.0681 24.7305 54.0685ZM47.3471 54.0685C46.1292 54.0662 44.9393 53.703 43.9278 53.0246C42.9163 52.3463 42.1285 51.3834 41.664 50.2575C41.1996 49.1317 41.0792 47.8934 41.3182 46.6992C41.5573 45.5049 42.1449 44.4084 43.0069 43.548C43.8689 42.6876 44.9666 42.102 46.1612 41.8652C47.3559 41.6285 48.5939 41.7511 49.7189 42.2177C50.8439 42.6843 51.8054 43.4738 52.4818 44.4866C53.1582 45.4994 53.5193 46.69 53.5193 47.9079C53.516 49.5428 52.8642 51.1096 51.7071 52.2645C50.55 53.4194 48.982 54.0682 47.3471 54.0685Z" fill="#D0D8E1"/>
</svg>
