<svg width="72" height="72" viewBox="0 0 72 72" fill="none" xmlns="http://www.w3.org/2000/svg">
<path d="M60.1102 21.3337L57.6705 20.4422L54.3863 16.1259C53.4949 14.953 52.0874 14.2961 50.633 14.2961L37.7777 14.2961C36.511 14.2961 35.3381 14.8122 34.4466 15.7036L28.4413 21.709L25.1102 21.9436C22.6236 22.0843 20.7 24.1487 20.7469 26.6353L20.7469 29.591C20.7469 31.1393 22.0137 32.406 23.5619 32.406L25.9078 32.406C26.4708 34.4235 28.3005 35.9248 30.5056 35.9248C32.7107 35.9248 34.5405 34.4235 35.1035 32.406L49.3662 32.406C49.9292 34.4235 51.759 35.9248 53.9641 35.9248C56.1691 35.9248 57.9989 34.4235 58.5619 32.406L60.4386 32.406L60.4855 32.406C62.0337 32.406 63.3005 31.1393 63.2536 29.591L63.2536 25.7438C63.2067 23.7264 61.9399 21.9905 60.1102 21.3337ZM30.4587 34.0481C28.8635 34.0481 27.5968 32.7814 27.5968 31.1862C27.5968 29.591 28.8635 28.3243 30.4587 28.3243C32.0539 28.3243 33.3206 29.591 33.3206 31.1862C33.3676 32.7345 32.0539 34.0481 30.4587 34.0481ZM53.9171 34.0481C52.322 34.0481 51.0552 32.7814 51.0552 31.1862C51.0552 29.591 52.322 28.3243 53.9171 28.3243C55.5123 28.3243 56.7791 29.591 56.7791 31.1862C56.7791 32.7345 55.5123 34.0481 53.9171 34.0481ZM61.2831 29.591C61.2831 30.1071 60.8608 30.5294 60.3447 30.5294L58.6088 30.5294C58.2804 28.1835 56.3099 26.4007 53.9171 26.4007C51.5244 26.4007 49.507 28.1835 49.2255 30.5294L35.1973 30.5294C34.8689 28.1835 32.8984 26.4007 30.5056 26.4007C28.1129 26.4007 26.0955 28.1835 25.814 30.5294L23.5619 30.5294C23.0459 30.5294 22.6236 30.1071 22.6236 29.591L22.6236 26.6353C22.6236 25.1339 23.7496 23.9141 25.2509 23.8203L28.9105 23.5857C29.145 23.5857 29.3327 23.4918 29.5204 23.3042L35.8072 16.9704C36.3233 16.4543 37.074 16.1259 37.8247 16.1259L50.633 16.1259C51.5244 16.1259 52.322 16.5481 52.885 17.2519L56.3099 21.8028C56.4037 21.9436 56.5445 22.0374 56.7321 22.1313L59.4533 23.1165C60.5793 23.4918 61.33 24.5709 61.33 25.7438L61.33 29.591L61.2831 29.591Z" fill="#D0D8E1"/>
<path d="M22.6695 55.0902C22.907 55.3277 23.1747 55.5134 23.4527 55.6741C23.6133 55.9902 23.9249 56.222 24.3037 56.2619C24.7611 56.3103 25.2036 56.3103 25.632 56.3103H40.8903C41.3089 56.3103 41.8449 56.3103 42.3951 56.2368L49.2046 61.4515C49.5993 61.7528 50.0658 61.8998 50.5289 61.8998C51.1424 61.8998 51.7507 61.6423 52.1784 61.1451L59.3559 52.7896C60.1238 51.9028 60.0412 50.5426 59.1737 49.76L53.9003 44.9759C51.0665 42.0078 48.4726 40.1872 45.7403 39.2492C42.5909 38.1601 40.1451 38.8693 37.5581 39.6206C37.0494 39.7681 36.5265 39.9202 35.9837 40.0626C33.6243 40.6783 30.9906 40.6259 28.4457 40.5746C27.9296 40.5638 27.4232 40.5541 26.9299 40.5501C26.2122 40.5507 23.2878 40.6669 23.2098 40.672C22.5331 40.672 21.8895 40.856 21.3079 41.1699L15.1944 35.0569C13.5204 33.383 10.8444 33.2007 9.10085 34.6428C8.13995 35.438 7.5549 36.6102 7.49628 37.8571C7.43647 39.1062 7.9081 40.328 8.78756 41.208L22.6695 55.0902ZM13.6614 36.589L19.7418 42.6694C19.3761 43.2851 19.1671 43.9817 19.1671 44.7148C19.1671 46.9465 20.9801 48.7618 23.2084 48.7618H35.9838C36.1804 48.9651 36.4589 49.0899 36.767 49.0899C37.3657 49.0899 37.8504 48.5932 37.8504 47.9951C37.8504 47.7615 37.8094 47.5616 37.7786 47.4306C37.6636 46.9413 37.2267 46.595 36.7243 46.595H23.2088C22.175 46.595 21.3338 45.7514 21.3338 44.7143C21.3338 44.2164 21.5297 43.7465 21.8851 43.3905C22.2411 43.0351 22.7105 42.8392 23.2544 42.8374C24.0866 42.8021 26.3599 42.715 26.9112 42.7173C27.3965 42.7212 27.8944 42.7309 28.4025 42.7412C30.9714 42.7919 33.8814 42.8505 36.5312 42.1596C37.0946 42.0121 37.6351 41.8549 38.1626 41.7022C40.6039 40.9925 42.5332 40.4343 45.0343 41.2978C47.4369 42.1226 49.7637 43.7761 52.3586 46.5C52.3769 46.5188 52.3957 46.5376 52.415 46.5547L57.7152 51.3757L50.5217 59.7317L43.3357 54.2289C43.0794 54.0324 42.7479 53.9612 42.4324 54.0335C41.9864 54.1372 41.4703 54.1451 40.8917 54.1451L25.6334 54.1469H25.6237V54.009C25.1224 54.095 24.5893 53.9469 24.2031 53.5613L10.3191 39.6762C9.86916 39.2273 9.62935 38.6008 9.66012 37.9589C9.69031 37.3107 9.98251 36.7257 10.4826 36.3116C11.374 35.5745 12.7702 35.6964 13.6622 36.589L13.6614 36.589Z" fill="#D0D8E1"/>
</svg>
