<svg width="72" height="72" viewBox="0 0 72 72" fill="none" xmlns="http://www.w3.org/2000/svg">
<path fill-rule="evenodd" clip-rule="evenodd" d="M26.2032 25.3436C26.8582 24.595 27.8874 24.1028 29.7049 24.1028H47.4372C49.5172 24.1028 51.5341 25.042 52.8136 26.7254L57.2993 32.6209L60.5944 33.8249C63.216 34.7664 65.0288 37.2528 65.0958 40.1377L65.096 40.1436L65.0959 45.4466C65.1628 47.7259 63.2985 49.5833 61.0276 49.5833H58.5613C57.6984 52.3761 55.1245 54.437 52.0321 54.437C48.9396 54.437 46.3657 52.3761 45.5028 49.5833H26.2032V46.4946H45.2776C45.4782 45.1912 46.0539 44.0182 46.8875 43.0802C48.1348 41.6767 49.9592 40.7996 51.9674 40.7996C54.7847 40.7996 57.1906 42.5241 58.2202 44.9996C58.417 45.4727 58.5635 45.9734 58.653 46.4946H60.8335C61.3507 46.4946 61.784 46.1124 61.8644 45.6168C61.8732 45.5625 61.8778 45.5069 61.8778 45.4503V45.2003H61.9425V40.1436C61.9425 38.63 60.9729 37.2393 59.5248 36.7566L59.5187 36.7546L55.7515 35.3905L55.7385 35.384C55.4713 35.2504 55.2305 35.0984 55.0641 34.8524L50.3461 28.5832C49.612 27.6671 48.5818 27.1267 47.4372 27.1267H29.7697C28.8036 27.1267 28.3404 27.558 28.3404 27.558C28.2147 27.1267 26.7418 25.4674 26.2032 25.3436ZM51.9674 43.953C49.9051 43.953 48.2697 45.5884 48.2697 47.6507C48.2697 49.7129 49.9051 51.3483 51.9674 51.3483C54.027 51.3483 55.6651 49.6509 55.6651 47.6507C55.6651 46.0014 54.6192 44.6252 53.1454 44.1401C52.7996 44.0262 52.4302 43.9615 52.0453 43.9537C52.0194 43.9532 51.9934 43.953 51.9674 43.953Z" fill="#D0D8E1"/>
<path fill-rule="evenodd" clip-rule="evenodd" d="M52.0453 43.9537L53.1454 44.1401C52.7996 44.0262 52.4302 43.9615 52.0453 43.9537Z" fill="#D0D8E1"/>
<path d="M21.0773 54.9376C21.0773 55.4707 20.6204 56.0037 20.0112 56.0037C19.402 56.0037 18.9451 55.5468 18.9451 54.9376V44.6572H16.1275V54.9376C16.1275 55.5468 15.6706 56.0037 15.0614 56.0037C14.5284 56.0037 13.9953 55.5468 13.9953 54.9376V34.1484H11.1777V54.9376C11.1777 57.0698 12.9292 58.8213 15.0614 58.8213C15.9752 58.8213 16.889 58.4405 17.5744 57.9075C18.2598 58.4405 19.0974 58.8213 20.0874 58.8213C22.2196 58.8213 23.9711 57.0698 23.9711 54.9376V34.1484H21.0773V54.9376Z" fill="#D0D8E1"/>
<path d="M22.0671 24.9342C23.8186 23.5635 24.8847 21.5075 24.8847 19.1468C24.8847 15.1108 21.6102 11.8363 17.5742 11.8363C13.5382 11.8363 10.2637 15.1108 10.2637 19.1468C10.2637 21.5075 11.406 23.5635 13.0813 24.9342C9.50223 26.1526 6.98926 29.5033 6.98926 33.387V42.6012H9.88299V33.4631C9.88299 30.1125 12.6244 27.3711 15.9751 27.3711H19.2495C22.6002 27.3711 25.3416 30.1125 25.3416 33.4631V42.6774H28.2353V33.4631C28.1592 29.5033 25.57 26.1526 22.0671 24.9342ZM17.5742 14.73C20.011 14.73 22.0671 16.71 22.0671 19.2229C22.0671 21.6598 20.0872 23.7158 17.5742 23.7158C15.1374 23.7158 13.0813 21.7359 13.0813 19.2229C13.0813 16.71 15.1374 14.73 17.5742 14.73Z" fill="#D0D8E1"/>
</svg>
