<svg width="73" height="72" viewBox="0 0 73 72" fill="none" xmlns="http://www.w3.org/2000/svg">
<path d="M63.1758 60.0706L9.68617 59.8119L9.47915 59.0485C8.96159 57.1594 8.67695 54.7269 8.68988 52.372C8.72869 44.958 11.6529 37.9964 16.9189 32.796C22.1592 27.6205 29.0942 24.7869 36.47 24.7869H36.5994C44.0263 24.8257 50.9869 27.737 56.2014 32.9901C61.4288 38.2563 64.2753 45.2304 64.2494 52.6572C64.2364 55.0379 63.9388 57.3928 63.3954 59.3078L63.1758 60.0706ZM11.2915 57.7546L61.5977 57.9875C61.96 56.4089 62.167 54.5069 62.18 52.6437C62.2447 38.4882 50.7679 26.921 36.5874 26.8571H36.458C29.6392 26.8571 23.2086 29.4837 18.369 34.2711C13.4911 39.0844 10.7868 45.5279 10.748 52.3849C10.748 54.261 10.9421 56.176 11.2915 57.7546L11.2915 57.7546Z" fill="#D0D8E1"/>
<path d="M36.4687 34.6589C35.8994 34.6589 35.4336 34.1931 35.4336 33.6238V29.2246C35.4336 28.6553 35.8994 28.1895 36.4687 28.1895C37.038 28.1895 37.5038 28.6553 37.5038 29.2246V33.6238C37.5038 34.1931 37.038 34.6589 36.4687 34.6589Z" fill="#D0D8E1"/>
<path d="M27.3351 37.2459C26.9728 37.2459 26.6235 37.0648 26.4423 36.7284L24.2557 32.9373C23.971 32.4456 24.1392 31.8116 24.6309 31.5269C25.1226 31.2423 25.7566 31.4105 26.0413 31.9022L28.2279 35.6933C28.5125 36.1849 28.3443 36.8189 27.8527 37.1036C27.6845 37.1942 27.5162 37.2459 27.3351 37.2459H27.3351Z" fill="#D0D8E1"/>
<path d="M20.6974 44.026C20.5162 44.026 20.348 43.9872 20.1798 43.8837L16.3887 41.697C15.8971 41.4124 15.7289 40.7784 16.0135 40.2867C16.2982 39.795 16.9322 39.6268 17.4239 39.9115L21.215 42.0981C21.7066 42.3827 21.8748 43.0167 21.5902 43.5084C21.3961 43.8319 21.0467 44.026 20.6974 44.026H20.6974Z" fill="#D0D8E1"/>
<path d="M18.2268 53.2909H13.957C13.3877 53.2909 12.9219 52.8251 12.9219 52.2558C12.9219 51.6865 13.3877 51.2207 13.957 51.2207H18.2268C18.7961 51.2207 19.2619 51.6865 19.2619 52.2558C19.2619 52.8251 18.7961 53.2909 18.2268 53.2909Z" fill="#D0D8E1"/>
<path d="M59.5027 52.902H55.1035C54.5342 52.902 54.0684 52.4362 54.0684 51.8669C54.0684 51.2976 54.5342 50.8318 55.1035 50.8318H59.5027C60.072 50.8318 60.5378 51.2976 60.5378 51.8669C60.5378 52.4362 60.072 52.902 59.5027 52.902Z" fill="#D0D8E1"/>
<path d="M52.5411 43.6769C52.1788 43.6769 51.8294 43.4957 51.6483 43.1593C51.3636 42.6676 51.5318 42.0336 52.0235 41.749L55.8146 39.5623C56.3063 39.2777 56.9403 39.4459 57.225 39.9376C57.5096 40.4292 57.3414 41.0632 56.8497 41.3479L53.0586 43.5345C52.8904 43.6251 52.7222 43.6769 52.5411 43.6769H52.5411Z" fill="#D0D8E1"/>
<path d="M45.7344 36.9871C45.5533 36.9871 45.3851 36.9483 45.2169 36.8448C44.7252 36.5602 44.557 35.9262 44.8416 35.4345L47.0283 31.6434C47.3129 31.1517 47.9469 30.9835 48.4386 31.2681C48.9303 31.5528 49.0985 32.1868 48.8138 32.6785L46.6401 36.4696C46.446 36.806 46.0967 36.9871 45.7344 36.9871H45.7344Z" fill="#D0D8E1"/>
<path d="M36.4686 55.2047C34.2431 55.2047 32.4316 53.3933 32.4316 51.1678C32.4316 48.9422 34.243 47.1309 36.4686 47.1309C38.6941 47.1309 40.5055 48.9422 40.5055 51.1678C40.5055 53.3933 38.707 55.2047 36.4686 55.2047ZM36.4686 49.2011C35.3817 49.2011 34.5019 50.0809 34.5019 51.1678C34.5019 52.2546 35.3817 53.1345 36.4686 53.1345C37.5554 53.1345 38.4353 52.2546 38.4353 51.1678C38.4353 50.0809 37.5554 49.2011 36.4686 49.2011Z" fill="#D0D8E1"/>
<path d="M38.2301 49.7707C37.9713 49.7707 37.7125 49.6672 37.5055 49.4731C37.0915 49.072 37.0915 48.4121 37.4926 48.011L44.4278 40.9335C44.8289 40.5195 45.4888 40.5195 45.8899 40.9206C46.3039 41.3217 46.3039 41.9816 45.9028 42.3826L38.9676 49.4602C38.7606 49.6672 38.4888 49.7707 38.2301 49.7707L38.2301 49.7707Z" fill="#D0D8E1"/>
</svg>
