<svg width="72" height="72" viewBox="0 0 72 72" fill="none" xmlns="http://www.w3.org/2000/svg">
<path d="M29.5886 43.4597H26.7314V46.3169H29.5886V43.4597Z" fill="#D0D8E1"/>
<path d="M32.446 40.6028H29.5889V43.4599H32.446V40.6028Z" fill="#D0D8E1"/>
<path d="M35.3034 43.4597H32.4463V46.3169H35.3034V43.4597Z" fill="#D0D8E1"/>
<path d="M41.0173 43.4597H38.1602V46.3169H41.0173V43.4597Z" fill="#D0D8E1"/>
<path d="M38.1599 40.6028H35.3027V43.4599H38.1599V40.6028Z" fill="#D0D8E1"/>
<path fill-rule="evenodd" clip-rule="evenodd" d="M44.0562 26.1735V24.7449C44.0562 22.3878 42.1276 20.4592 39.7705 20.4592H34.0562C31.6991 20.4592 29.7705 22.3878 29.7705 24.7449V26.1735L29.7704 28.9592H44.0562V26.1735ZM32.6276 24.7449V26.1735H41.1991V24.7449C41.1991 23.9592 40.5562 23.3164 39.7705 23.3164H34.0562C33.2705 23.3164 32.6276 23.9592 32.6276 24.7449Z" fill="#D0D8E1"/>
<path d="M61.2305 37.2369L57.4875 35.8692L52.4488 29.247C51.0811 27.4474 48.9217 26.4397 46.6903 26.4397L26.9674 26.4397C25.0239 26.4397 23.2244 27.2315 21.8567 28.5991L12.6431 37.8127L7.53246 38.1726C3.71745 38.3886 0.766222 41.5558 0.838203 45.3708L0.838203 49.9056C0.838203 52.281 2.7817 54.2245 5.15708 54.2245L8.75614 54.2245C9.61992 57.3197 12.4272 59.6231 15.8103 59.6231C19.1934 59.6231 22.0007 57.3197 22.8645 54.2245L44.7468 54.2245C45.6106 57.3197 48.4178 59.6231 51.8009 59.6231C55.1841 59.6231 57.9913 57.3197 58.8551 54.2245L61.7344 54.2245L61.8063 54.2245C64.1817 54.2245 66.1252 52.281 66.0532 49.9056L66.0532 44.0031C65.9813 40.9079 64.0378 38.2446 61.2305 37.2369ZM15.7383 56.7438C13.291 56.7438 11.3475 54.8003 11.3475 52.3529C11.3475 49.9056 13.291 47.9621 15.7383 47.9621C18.1857 47.9621 20.1292 49.9056 20.1292 52.3529C20.2012 54.7283 18.1857 56.7438 15.7383 56.7438ZM51.729 56.7438C49.2816 56.7438 47.3381 54.8003 47.3381 52.3529C47.3381 49.9056 49.2816 47.9621 51.729 47.9621C54.1763 47.9621 56.1198 49.9056 56.1198 52.3529C56.1198 54.7283 54.1763 56.7438 51.729 56.7438ZM63.03 49.9056C63.03 50.6974 62.3822 51.3452 61.5904 51.3452L58.9271 51.3452C58.4232 47.7462 55.4 45.0109 51.729 45.0109C48.0579 45.0109 44.9627 47.7462 44.5308 51.3452L23.0084 51.3452C22.5046 47.7462 19.4814 45.0109 15.8103 45.0109C12.1393 45.0109 9.04407 47.7462 8.61218 51.3452L5.15708 51.3452C4.36529 51.3452 3.71745 50.6974 3.71745 49.9056L3.71745 45.3708C3.71745 43.0674 5.445 41.1959 7.74841 41.0519L13.3629 40.692C13.7229 40.692 14.0108 40.548 14.2987 40.2601L23.9442 30.5426C24.736 29.7508 25.8877 29.247 27.0394 29.247L46.6903 29.247C48.0579 29.247 49.2816 29.8948 50.1454 30.9745L55.4 37.9567C55.544 38.1726 55.7599 38.3166 56.0478 38.4606L60.2228 39.9722C61.9503 40.548 63.102 42.2036 63.102 44.0031L63.102 49.9056L63.03 49.9056Z" fill="#D0D8E1"/>
</svg>
