<svg width="31" height="36" viewBox="0 0 31 36" fill="none" xmlns="http://www.w3.org/2000/svg">
<path d="M22.0715 19.6249C24.6067 17.6408 26.1499 14.6646 26.1499 11.2475C26.1499 5.40538 21.4101 0.665527 15.5679 0.665527C9.7258 0.665527 4.98595 5.40538 4.98595 11.2475C4.98595 14.6646 6.63938 17.6408 9.06443 19.6249C3.88366 21.3886 0.246094 26.2387 0.246094 31.8604V35.0655H4.4348V31.9706C4.4348 27.1205 8.40305 23.1523 13.2531 23.1523H17.993C22.8431 23.1523 26.8113 27.1205 26.8113 31.9706V35.1758H31V31.9706C30.8898 26.2387 27.142 21.3886 22.0715 19.6249ZM15.5679 4.85424C19.0953 4.85424 22.0715 7.72019 22.0715 11.3578C22.0715 14.8851 19.2055 17.8613 15.5679 17.8613C12.0406 17.8613 9.06443 14.9953 9.06443 11.3578C9.06443 7.72019 12.0406 4.85424 15.5679 4.85424Z" fill="#D0D8E1"/>
</svg>
