<svg width="72" height="72" viewBox="0 0 72 72" fill="none" xmlns="http://www.w3.org/2000/svg">
<path d="M59.7196 56.5679C59.7014 57.7135 59.3904 58.8345 58.8169 59.8261C58.229 60.8534 57.3786 61.707 56.3525 62.2981C55.3271 62.8898 54.1626 63.1982 52.9785 63.1919H37.132L37.6104 63.6338L37.6098 63.6344C38.3545 64.3174 39.1892 64.894 40.0918 65.3485C40.6501 65.6293 40.9435 66.2556 40.8018 66.8643C40.6602 67.473 40.1207 67.9061 39.4963 67.9118C39.286 67.9118 39.0789 67.8627 38.8914 67.767C37.7734 67.2049 36.738 66.4917 35.8138 65.6463C35.1 65.0042 34.4333 64.3106 33.8196 63.5709C33.3683 63.0207 33.1159 62.6682 33.0793 62.5965H33.08C33.0353 62.5354 32.9988 62.4687 32.9717 62.3976V62.3252L32.9176 62.1628V62.1634C32.9213 62.1395 32.9213 62.1149 32.9176 62.091C32.8905 61.9299 32.8905 61.7649 32.9176 61.6038C32.9226 61.5799 32.9226 61.5553 32.9176 61.5314L32.9717 61.369V61.3061C32.9981 61.2324 33.0346 61.1625 33.08 61.0983C33.08 61.053 33.3689 60.6741 33.8202 60.1239H33.8196C34.4308 59.3849 35.0974 58.6943 35.8138 58.0574C36.7397 57.2126 37.7746 56.4963 38.8914 55.9278C39.2143 55.7088 39.6159 55.6401 39.9929 55.7383C40.3706 55.8372 40.6872 56.094 40.8616 56.4427C41.036 56.7915 41.0511 57.1987 40.9038 57.56C40.7565 57.9207 40.4606 58.2009 40.0917 58.328C39.1916 58.7863 38.3569 59.3629 37.6098 60.0428C37.4386 60.1869 37.285 60.3405 37.1314 60.4846H52.969C53.7004 60.4916 54.4186 60.2945 55.045 59.9162C55.6348 59.5606 56.1258 59.0602 56.4708 58.4634C56.8208 57.8692 57.0102 57.1944 57.0209 56.5052C57.0386 55.7737 56.8516 55.0511 56.4796 54.4203L52.2382 47.0201V47.0207C52.0393 46.7085 51.977 46.3289 52.0651 45.9695C52.1539 45.6101 52.3855 45.3029 52.7066 45.1185C53.0276 44.9347 53.4103 44.89 53.7647 44.9957C54.1197 45.1009 54.4156 45.347 54.5843 45.6762L58.8256 53.0852C59.4337 54.144 59.7422 55.3475 59.7195 56.5681L59.7196 56.5679ZM27.5114 60.4939H19.0285H19.0291C18.2977 60.5002 17.5788 60.3031 16.9531 59.9248C15.7546 59.2003 15.0094 57.9142 14.9771 56.5137C14.9633 55.7829 15.1509 55.0615 15.5185 54.4294L22.539 42.1748C22.5843 42.3731 22.6384 42.5808 22.6831 42.7885L22.6837 42.7879C22.8971 43.7774 22.979 44.7909 22.9274 45.8024C22.9022 46.1606 23.0224 46.5137 23.2597 46.7832C23.497 47.0526 23.8319 47.2162 24.1907 47.237H24.2719C24.9819 47.2339 25.5693 46.6824 25.6165 45.9736C25.6908 44.7204 25.5907 43.4633 25.3187 42.2376C25.1242 41.2972 24.8554 40.3738 24.5155 39.4761C24.2631 38.7994 24.0642 38.3934 24.0465 38.3481L23.9924 38.2581H23.9918C23.9685 38.2108 23.9414 38.1655 23.9106 38.1227L23.8294 38.0327L23.7576 37.9332C23.6903 37.8747 23.6179 37.8231 23.5411 37.7797H23.4511L23.3428 37.7343H22.8102C22.729 37.7343 22.2871 37.7343 21.601 37.8879H21.6004C20.6549 38.0453 19.7227 38.2744 18.8118 38.5734C17.6176 38.9599 16.4795 39.5032 15.4277 40.1892C14.9342 40.5178 14.7145 41.1316 14.887 41.6993C15.0594 42.2665 15.5838 42.6543 16.1768 42.6524C16.4437 42.6543 16.7049 42.5756 16.9258 42.427C17.7687 41.8819 18.6789 41.4482 19.6332 41.1366L20.2652 40.9471L13.1811 53.0935C12.568 54.1473 12.2564 55.3489 12.2784 56.5676C12.3068 58.3377 13.0313 60.0247 14.2947 61.2647C15.558 62.5042 17.259 63.1965 19.029 63.1915H27.5119H27.5113C28.2591 63.1915 28.8652 62.5854 28.8652 61.8382C28.8652 61.0904 28.2591 60.4842 27.5113 60.4842L27.5114 60.4939ZM34.0177 23.2772H34.0183C35.254 22.61 36.7433 22.61 37.9796 23.2772C38.6292 23.6455 39.1611 24.1893 39.5136 24.8471L46.5436 37.1289L45.921 36.9394V36.94C44.9642 36.6335 44.054 36.1998 43.2136 35.6496C42.9165 35.4198 42.5376 35.3235 42.1668 35.3846C41.796 35.445 41.4675 35.6572 41.2591 35.9694C41.0507 36.2816 40.9821 36.6668 41.0684 37.0319C41.1552 37.3977 41.3894 37.7105 41.7155 37.8962C42.7692 38.5761 43.9074 39.1155 45.0995 39.5026C46.0104 39.8023 46.9427 40.0314 47.8882 40.1888C48.6014 40.3059 49.0521 40.3424 49.1062 40.3424H49.7105L49.7111 40.3417C49.7816 40.3147 49.8484 40.2782 49.9094 40.2335L50.0718 40.1164L50.1983 39.981C50.2405 39.92 50.2802 39.8564 50.3154 39.7916C50.5175 39.334 50.6893 38.8637 50.8303 38.3834C51.1721 37.5028 51.4491 36.5976 51.6606 35.6767C51.9237 34.4498 52.0238 33.1934 51.9584 31.94C51.9105 31.1928 51.2666 30.625 50.5187 30.6722C49.7709 30.7201 49.2038 31.364 49.251 32.1119C49.312 33.1159 49.2359 34.1236 49.025 35.1076C48.9797 35.3153 48.935 35.5224 48.8809 35.7213L41.8509 23.4666C41.2466 22.399 40.3603 21.5184 39.2883 20.9217C37.2363 19.8113 34.7617 19.8113 32.7097 20.9217C31.6377 21.5184 30.7515 22.399 30.1465 23.4666L25.9052 30.8668H25.9058C25.5344 31.5195 25.7623 32.3498 26.4157 32.7212C27.0684 33.092 27.8987 32.8641 28.2701 32.2114L32.4844 24.8472C32.8369 24.1894 33.3688 23.6455 34.0184 23.2772L34.0177 23.2772Z" fill="#D0D8E1"/>
</svg>
