<svg width="272" height="28" viewBox="0 0 272 28" fill="none" xmlns="http://www.w3.org/2000/svg">
<path d="M19.8869 20.0107L22.1586 24.4907C21.3641 25.3867 20.1848 26.1209 18.6207 26.6934C17.0814 27.2409 15.4303 27.5147 13.6676 27.5147C9.62069 27.5147 6.33103 26.2827 3.79862 23.8187C1.26621 21.3049 0 18.032 0 14C0 10.0676 1.19172 6.83202 3.57517 4.29335C5.95862 1.75468 9.31035 0.485352 13.6303 0.485352C15.269 0.485352 16.7959 0.73424 18.211 1.23202C19.6262 1.72979 20.7559 2.38935 21.6 3.21068L18.9559 7.69068C17.2179 6.62046 15.4428 6.08535 13.6303 6.08535C11.52 6.08535 9.76966 6.78224 8.37931 8.17602C7.01379 9.54491 6.33103 11.4862 6.33103 14C6.33103 16.2898 7.06345 18.1938 8.52828 19.712C9.9931 21.1805 11.8924 21.9147 14.2262 21.9147C16.3117 21.9147 18.1986 21.28 19.8869 20.0107Z" fill="white"/>
<path d="M47.6791 27.0667H41.7205V16.5387H32.224V27.0667H26.2654V0.93335H32.224V10.9387H41.7205V0.93335H47.6791V27.0667Z" fill="white"/>
<path d="M70.2058 27.0667H54.3782V0.93335H69.8334V6.53335H60.3369V11.1253H68.7162V16.7254H60.3369V21.4667H70.2058V27.0667Z" fill="white"/>
<path d="M93.8241 20.0107L96.0959 24.4907C95.3014 25.3867 94.1221 26.1209 92.5579 26.6934C91.0186 27.2409 89.3676 27.5147 87.6048 27.5147C83.5579 27.5147 80.2683 26.2827 77.7359 23.8187C75.2034 21.3049 73.9372 18.032 73.9372 14C73.9372 10.0676 75.129 6.83202 77.5124 4.29335C79.8958 1.75468 83.2476 0.485352 87.5676 0.485352C89.2062 0.485352 90.7331 0.73424 92.1483 1.23202C93.5634 1.72979 94.6931 2.38935 95.5372 3.21068L92.8931 7.69068C91.1552 6.62046 89.38 6.08535 87.5676 6.08535C85.4572 6.08535 83.7069 6.78224 82.3165 8.17602C80.951 9.54491 80.2683 11.4862 80.2683 14C80.2683 16.2898 81.0007 18.1938 82.4655 19.712C83.9303 21.1805 85.8296 21.9147 88.1634 21.9147C90.249 21.9147 92.1358 21.28 93.8241 20.0107Z" fill="white"/>
<path d="M106.161 27.0667H100.203V0.93335H106.161V12.32L114.689 0.93335H121.84L112.045 12.992L122.622 27.0667H115.062L106.161 14.6347V27.0667Z" fill="white"/>
<path d="M142.667 20.0107L144.939 24.4907C144.144 25.3867 142.965 26.1209 141.401 26.6934C139.862 27.2409 138.211 27.5147 136.448 27.5147C132.401 27.5147 129.111 26.2827 126.579 23.8187C124.046 21.3049 122.78 18.032 122.78 14C122.78 10.0676 123.972 6.83202 126.355 4.29335C128.739 1.75468 132.091 0.485352 136.411 0.485352C138.049 0.485352 139.576 0.73424 140.991 1.23202C142.406 1.72979 143.536 2.38935 144.38 3.21068L141.736 7.69068C139.998 6.62046 138.223 6.08535 136.411 6.08535C134.3 6.08535 132.55 6.78224 131.159 8.17602C129.794 9.54491 129.111 11.4862 129.111 14C129.111 16.2898 129.844 18.1938 131.308 19.712C132.773 21.1805 134.673 21.9147 137.006 21.9147C139.092 21.9147 140.979 21.28 142.667 20.0107Z" fill="white"/>
<path d="M151.69 27.0667H145.694L156.531 0.93335H161.857L172.694 27.0667H166.326L164.166 21.5787H153.85L151.69 27.0667ZM161.931 15.9787L159.026 8.58668L156.084 15.9787H161.931Z" fill="white"/>
<path d="M181.99 17.92V27.0667H176.031V0.93335C177.446 0.93335 179.01 0.920906 180.723 0.896017C182.437 0.871129 183.827 0.858685 184.894 0.858685C191.325 0.858685 194.54 3.64624 194.54 9.22135C194.54 12.8053 193.075 15.3191 190.145 16.7627L197.743 27.0667H190.518L184.187 17.92H181.99ZM184.597 6.45868C184.572 6.45868 184.46 6.47113 184.261 6.49602C184.063 6.49602 183.752 6.50846 183.33 6.53335C182.908 6.53335 182.461 6.53335 181.99 6.53335V12.32H184.15C186.856 12.32 188.209 11.312 188.209 9.29602C188.209 7.40446 187.005 6.45868 184.597 6.45868Z" fill="white"/>
<path d="M200.173 23.3706C200.173 22.4497 200.533 21.6408 201.253 20.944C201.973 20.2222 202.879 19.8613 203.971 19.8613C204.94 19.8613 205.759 20.2222 206.429 20.944C207.125 21.6408 207.472 22.4497 207.472 23.3706C207.472 24.416 207.137 25.312 206.467 26.0586C205.821 26.8053 204.989 27.1786 203.971 27.1786C202.854 27.1786 201.936 26.8177 201.216 26.096C200.52 25.3493 200.173 24.4408 200.173 23.3706Z" fill="#DA2626"/>
<path d="M226 0.821289H231.996L221.829 26.9546H217.249L206.821 0.821289H213.189L219.744 18.0693L226 0.821289Z" fill="#DA2626"/>
<path d="M241.316 26.9546H235.357V0.821289H241.316V26.9546Z" fill="#DA2626"/>
<path d="M271.122 0.821289V26.9546H266.355L253.991 11.2746V26.9546H248.405V0.821289H253.172L265.536 16.576V0.821289H271.122Z" fill="#DA2626"/>
</svg>
