<svg width="18" height="14" viewBox="0 0 18 14" fill="none" xmlns="http://www.w3.org/2000/svg">
<rect y="0.5" width="18" height="13" rx="2" fill="white"/>
<mask id="mask0_16280_12182" style="mask-type:alpha" maskUnits="userSpaceOnUse" x="0" y="0" width="18" height="14">
<rect y="0.5" width="18" height="13" rx="2" fill="white"/>
</mask>
<g mask="url(#mask0_16280_12182)">
<path fill-rule="evenodd" clip-rule="evenodd" d="M18 0.5H0V1.36667H18V0.5ZM18 2.23333H0V3.1H18V2.23333ZM0 3.96667H18V4.83333H0V3.96667ZM18 5.7H0V6.56667H18V5.7ZM0 7.43333H18V8.3H0V7.43333ZM18 9.16667H0V10.0333H18V9.16667ZM0 10.9H18V11.7667H0V10.9ZM18 12.6333H0V13.5H18V12.6333Z" fill="#D02F44"/>
<rect y="0.5" width="7.71429" height="6.06667" fill="#46467F"/>
<g filter="url(#filter0_d_16280_12182)">
<path fill-rule="evenodd" clip-rule="evenodd" d="M1.71456 1.79997C1.71456 2.03929 1.52269 2.2333 1.28599 2.2333C1.0493 2.2333 0.857422 2.03929 0.857422 1.79997C0.857422 1.56065 1.0493 1.36664 1.28599 1.36664C1.52269 1.36664 1.71456 1.56065 1.71456 1.79997ZM3.42885 1.79997C3.42885 2.03929 3.23697 2.2333 3.00028 2.2333C2.76359 2.2333 2.57171 2.03929 2.57171 1.79997C2.57171 1.56065 2.76359 1.36664 3.00028 1.36664C3.23697 1.36664 3.42885 1.56065 3.42885 1.79997ZM4.71456 2.2333C4.95126 2.2333 5.14314 2.03929 5.14314 1.79997C5.14314 1.56065 4.95126 1.36664 4.71456 1.36664C4.47787 1.36664 4.28599 1.56065 4.28599 1.79997C4.28599 2.03929 4.47787 2.2333 4.71456 2.2333ZM6.85742 1.79997C6.85742 2.03929 6.66554 2.2333 6.42885 2.2333C6.19216 2.2333 6.00028 2.03929 6.00028 1.79997C6.00028 1.56065 6.19216 1.36664 6.42885 1.36664C6.66554 1.36664 6.85742 1.56065 6.85742 1.79997ZM2.14314 3.09997C2.37983 3.09997 2.57171 2.90596 2.57171 2.66664C2.57171 2.42731 2.37983 2.2333 2.14314 2.2333C1.90644 2.2333 1.71456 2.42731 1.71456 2.66664C1.71456 2.90596 1.90644 3.09997 2.14314 3.09997ZM4.28599 2.66664C4.28599 2.90596 4.09412 3.09997 3.85742 3.09997C3.62073 3.09997 3.42885 2.90596 3.42885 2.66664C3.42885 2.42731 3.62073 2.2333 3.85742 2.2333C4.09412 2.2333 4.28599 2.42731 4.28599 2.66664ZM5.57171 3.09997C5.8084 3.09997 6.00028 2.90596 6.00028 2.66664C6.00028 2.42731 5.8084 2.2333 5.57171 2.2333C5.33501 2.2333 5.14314 2.42731 5.14314 2.66664C5.14314 2.90596 5.33501 3.09997 5.57171 3.09997ZM6.85742 3.5333C6.85742 3.77263 6.66554 3.96664 6.42885 3.96664C6.19216 3.96664 6.00028 3.77263 6.00028 3.5333C6.00028 3.29398 6.19216 3.09997 6.42885 3.09997C6.66554 3.09997 6.85742 3.29398 6.85742 3.5333ZM4.71456 3.96664C4.95126 3.96664 5.14314 3.77263 5.14314 3.5333C5.14314 3.29398 4.95126 3.09997 4.71456 3.09997C4.47787 3.09997 4.28599 3.29398 4.28599 3.5333C4.28599 3.77263 4.47787 3.96664 4.71456 3.96664ZM3.42885 3.5333C3.42885 3.77263 3.23697 3.96664 3.00028 3.96664C2.76359 3.96664 2.57171 3.77263 2.57171 3.5333C2.57171 3.29398 2.76359 3.09997 3.00028 3.09997C3.23697 3.09997 3.42885 3.29398 3.42885 3.5333ZM1.28599 3.96664C1.52269 3.96664 1.71456 3.77263 1.71456 3.5333C1.71456 3.29398 1.52269 3.09997 1.28599 3.09997C1.0493 3.09997 0.857422 3.29398 0.857422 3.5333C0.857422 3.77263 1.0493 3.96664 1.28599 3.96664ZM2.57171 4.39997C2.57171 4.63929 2.37983 4.8333 2.14314 4.8333C1.90644 4.8333 1.71456 4.63929 1.71456 4.39997C1.71456 4.16065 1.90644 3.96664 2.14314 3.96664C2.37983 3.96664 2.57171 4.16065 2.57171 4.39997ZM3.85742 4.8333C4.09412 4.8333 4.28599 4.63929 4.28599 4.39997C4.28599 4.16065 4.09412 3.96664 3.85742 3.96664C3.62073 3.96664 3.42885 4.16065 3.42885 4.39997C3.42885 4.63929 3.62073 4.8333 3.85742 4.8333ZM6.00028 4.39997C6.00028 4.63929 5.8084 4.8333 5.57171 4.8333C5.33501 4.8333 5.14314 4.63929 5.14314 4.39997C5.14314 4.16065 5.33501 3.96664 5.57171 3.96664C5.8084 3.96664 6.00028 4.16065 6.00028 4.39997ZM6.42885 5.69997C6.66554 5.69997 6.85742 5.50596 6.85742 5.26664C6.85742 5.02732 6.66554 4.83331 6.42885 4.83331C6.19216 4.83331 6.00028 5.02732 6.00028 5.26664C6.00028 5.50596 6.19216 5.69997 6.42885 5.69997ZM5.14314 5.26664C5.14314 5.50596 4.95126 5.69997 4.71456 5.69997C4.47787 5.69997 4.28599 5.50596 4.28599 5.26664C4.28599 5.02732 4.47787 4.83331 4.71456 4.83331C4.95126 4.83331 5.14314 5.02732 5.14314 5.26664ZM3.00028 5.69997C3.23697 5.69997 3.42885 5.50596 3.42885 5.26664C3.42885 5.02732 3.23697 4.83331 3.00028 4.83331C2.76359 4.83331 2.57171 5.02732 2.57171 5.26664C2.57171 5.50596 2.76359 5.69997 3.00028 5.69997ZM1.71456 5.26664C1.71456 5.50596 1.52269 5.69997 1.28599 5.69997C1.0493 5.69997 0.857422 5.50596 0.857422 5.26664C0.857422 5.02732 1.0493 4.83331 1.28599 4.83331C1.52269 4.83331 1.71456 5.02732 1.71456 5.26664Z" fill="url(#paint0_linear_16280_12182)"/>
</g>
</g>
<defs>
<filter id="filter0_d_16280_12182" x="0.857422" y="1.36664" width="6" height="5.33331" filterUnits="userSpaceOnUse" color-interpolation-filters="sRGB">
<feFlood flood-opacity="0" result="BackgroundImageFix"/>
<feColorMatrix in="SourceAlpha" type="matrix" values="0 0 0 0 0 0 0 0 0 0 0 0 0 0 0 0 0 0 127 0" result="hardAlpha"/>
<feOffset dy="1"/>
<feColorMatrix type="matrix" values="0 0 0 0 0 0 0 0 0 0 0 0 0 0 0 0 0 0 0.06 0"/>
<feBlend mode="normal" in2="BackgroundImageFix" result="effect1_dropShadow_16280_12182"/>
<feBlend mode="normal" in="SourceGraphic" in2="effect1_dropShadow_16280_12182" result="shape"/>
</filter>
<linearGradient id="paint0_linear_16280_12182" x1="0.857422" y1="1.36664" x2="0.857422" y2="5.69997" gradientUnits="userSpaceOnUse">
<stop stop-color="white"/>
<stop offset="1" stop-color="#F0F0F0"/>
</linearGradient>
</defs>
</svg>
