<svg width="195" height="20" viewBox="0 0 195 20" fill="none" xmlns="http://www.w3.org/2000/svg">
<path d="M14.2891 14.2933L15.9214 17.4933C15.3505 18.1333 14.5032 18.6578 13.3793 19.0667C12.2733 19.4578 11.087 19.6533 9.82042 19.6533C6.91264 19.6533 4.54897 18.7733 2.72938 17.0133C0.909793 15.2178 0 12.88 0 10C0 7.19112 0.856276 4.88001 2.56883 3.06668C4.28138 1.25335 6.68966 0.34668 9.79366 0.34668C10.971 0.34668 12.0681 0.524457 13.085 0.880013C14.1018 1.23557 14.9135 1.70668 15.52 2.29335L13.6201 5.49335C12.3714 4.7289 11.0959 4.34668 9.79366 4.34668C8.27733 4.34668 7.01968 4.84446 6.02069 5.84001C5.03954 6.81779 4.54897 8.20446 4.54897 10C4.54897 11.6356 5.07522 12.9956 6.12773 14.08C7.18023 15.1289 8.54492 15.6533 10.2218 15.6533C11.7203 15.6533 13.076 15.2 14.2891 14.2933Z" fill="#333A41"/>
<path d="M34.2584 19.3333H29.977V11.8133H23.1535V19.3333H18.8721V0.666679H23.1535V7.81335H29.977V0.666679H34.2584V19.3333Z" fill="#333A41"/>
<path d="M50.4442 19.3333H39.0718V0.666679H50.1766V4.66668H43.3532V7.94668H49.3738V11.9467H43.3532V15.3333H50.4442V19.3333Z" fill="#333A41"/>
<path d="M67.4144 14.2933L69.0467 17.4933C68.4758 18.1333 67.6284 18.6578 66.5046 19.0667C65.3986 19.4578 64.2123 19.6533 62.9457 19.6533C60.0379 19.6533 57.6742 18.7733 55.8547 17.0133C54.0351 15.2178 53.1253 12.88 53.1253 10C53.1253 7.19112 53.9815 4.88001 55.6941 3.06668C57.4067 1.25335 59.8149 0.34668 62.9189 0.34668C64.0963 0.34668 65.1934 0.524457 66.2102 0.880013C67.2271 1.23557 68.0387 1.70668 68.6453 2.29335L66.7454 5.49335C65.4967 4.7289 64.2212 4.34668 62.9189 4.34668C61.4026 4.34668 60.145 4.84446 59.146 5.84001C58.1648 6.81779 57.6742 8.20446 57.6742 10C57.6742 11.6356 58.2005 12.9956 59.253 14.08C60.3055 15.1289 61.6702 15.6533 63.3471 15.6533C64.8456 15.6533 66.2013 15.2 67.4144 14.2933Z" fill="#333A41"/>
<path d="M76.2788 19.3333H71.9974V0.666679H76.2788V8.80001L82.4065 0.666679H87.5442L80.5067 9.28001L88.1061 19.3333H82.6741L76.2788 10.4533V19.3333Z" fill="#333A41"/>
<path d="M102.509 14.2933L104.141 17.4933C103.57 18.1333 102.723 18.6578 101.599 19.0667C100.493 19.4578 99.3068 19.6533 98.0403 19.6533C95.1325 19.6533 92.7688 18.7733 90.9492 17.0133C89.1296 15.2178 88.2198 12.88 88.2198 10C88.2198 7.19112 89.0761 4.88001 90.7887 3.06668C92.5012 1.25335 94.9095 0.34668 98.0135 0.34668C99.1909 0.34668 100.288 0.524457 101.305 0.880013C102.322 1.23557 103.133 1.70668 103.74 2.29335L101.84 5.49335C100.591 4.7289 99.3158 4.34668 98.0135 4.34668C96.4972 4.34668 95.2395 4.84446 94.2405 5.84001C93.2594 6.81779 92.7688 8.20446 92.7688 10C92.7688 11.6356 93.2951 12.9956 94.3476 14.08C95.4001 15.1289 96.7648 15.6533 98.4416 15.6533C99.9401 15.6533 101.296 15.2 102.509 14.2933Z" fill="#333A41"/>
<path d="M108.992 19.3333H104.684L112.47 0.666679H116.297L124.084 19.3333H119.508L117.956 15.4133H110.544L108.992 19.3333ZM116.35 11.4133L114.263 6.13335L112.149 11.4133H116.35Z" fill="#333A41"/>
<path d="M130.763 12.8V19.3333H126.482V0.666679C127.498 0.666679 128.622 0.65779 129.853 0.640012C131.084 0.622235 132.083 0.613346 132.85 0.613346C137.47 0.613346 139.781 2.60446 139.781 6.58668C139.781 9.14668 138.728 10.9422 136.623 11.9733L142.082 19.3333H136.891L132.342 12.8H130.763ZM132.636 4.61335C132.618 4.61335 132.538 4.62223 132.395 4.64001C132.252 4.64001 132.029 4.6489 131.726 4.66668C131.423 4.66668 131.102 4.66668 130.763 4.66668V8.80001H132.315C134.259 8.80001 135.232 8.08001 135.232 6.64001C135.232 5.2889 134.366 4.61335 132.636 4.61335Z" fill="#333A41"/>
<path d="M143.827 16.6934C143.827 16.0356 144.086 15.4578 144.603 14.9601C145.12 14.4445 145.772 14.1867 146.557 14.1867C147.252 14.1867 147.841 14.4445 148.323 14.9601C148.822 15.4578 149.072 16.0356 149.072 16.6934C149.072 17.4401 148.831 18.0801 148.349 18.6134C147.886 19.1467 147.288 19.4134 146.557 19.4134C145.754 19.4134 145.094 19.1556 144.576 18.6401C144.077 18.1067 143.827 17.4578 143.827 16.6934Z" fill="#DA2626"/>
<path d="M162.385 0.586731H166.693L159.388 19.2534H156.096L148.604 0.586731H153.18L157.889 12.9067L162.385 0.586731Z" fill="#DA2626"/>
<path d="M173.389 19.2534H169.108V0.586731H173.389V19.2534Z" fill="#DA2626"/>
<path d="M194.805 0.586731V19.2534H191.38L182.496 8.0534V19.2534H178.483V0.586731H181.908L190.792 11.8401V0.586731H194.805Z" fill="#DA2626"/>
</svg>
